<?xml version="1.0"?><svg version="1.1" id="圖層_1" xmlns="http://www.w3.org/2000/svg" x="0" y="0" viewBox="0 0 100 100" xml:space="preserve"><path d="M54.8 48.7h-9.6v-18c0-1.6 1.3-2.9 2.9-2.9H52c1.6 0 2.9 1.3 2.9 2.9v18z" fill="#e0e0e0"/><path d="M56 19.1c0 3.3-2.7 6-6 6s-6-2.7-6-6 6-11.6 6-11.6 6 8.3 6 11.6z" fill="#f8b26a"/><path d="M74 51.6h-9.6V32.1c0-1.6 1.3-2.9 2.9-2.9h3.9c1.6 0 2.9 1.3 2.9 2.9v19.5z" fill="#e0e0e0"/><path d="M73.6 21.5c0 2.4-1.9 4.3-4.3 4.3S65 23.9 65 21.5s4.3-8.4 4.3-8.4 4.3 6 4.3 8.4z" fill="#f8b26a"/><path d="M35.6 51.6H26V32.1c0-1.6 1.3-2.9 2.9-2.9h3.9c1.6 0 2.9 1.3 2.9 2.9v19.5z" fill="#e0e0e0"/><path d="M35.1 21.5c0 2.4-1.9 4.3-4.3 4.3s-4.3-1.9-4.3-4.3 4.3-8.4 4.3-8.4 4.3 6 4.3 8.4z" fill="#f8b26a"/><path d="M66.2 53.2v4.6c0 4.3-3.5 7.8-7.8 7.8H53v-15c0-1-.8-1.9-1.9-1.9h-2.3c-1 0-1.9.8-1.9 1.9v15h-5.4c-4.3 0-7.8-3.5-7.8-7.8v-4.6c0-1-.8-1.9-1.9-1.9h-2.3c-1 0-1.9.8-1.9 1.9v4.6c0 7.6 6.2 13.8 13.8 13.8H47v11.3c0 .9.7 1.6 1.6 1.6h2.9c.9 0 1.6-.7 1.6-1.6V71.6h5.4c7.6 0 13.8-6.2 13.8-13.8v-4.6c0-1-.8-1.9-1.9-1.9h-2.3c-1 .1-1.9.9-1.9 1.9z" fill="#666"/><g><path d="M54.4 50.7h-8.8c-1.1 0-2.1-.9-2.1-2.1v-1.9h13v1.9c0 1.2-.9 2.1-2.1 2.1z" fill="#333"/></g><g><path d="M73.7 53.6h-8.8c-1.1 0-2.1-.9-2.1-2.1v-1.9h13v1.9c-.1 1.2-1 2.1-2.1 2.1z" fill="#333"/></g><g><path d="M35.2 53.6h-8.8c-1.1 0-2.1-.9-2.1-2.1v-1.9h13v1.9c-.1 1.2-1 2.1-2.1 2.1z" fill="#333"/></g><g><path d="M59.6 87.5H40.4v-1.9c0-1.7 1.4-3.1 3.1-3.1h13.1c1.7 0 3.1 1.4 3.1 3.1v1.9z" fill="#333"/></g><path d="M66.3 93.3H33.7v-2.7c0-1.7 1.4-3.1 3.1-3.1h26.4c1.7 0 3.1 1.4 3.1 3.1v2.7z" fill="#333"/><metadata xmlns:d="https://loading.io/stock/">
<d:name>candle</d:name>
<d:tags>light,torch,burn,fire,candlelit dinner,romantic,love,date,candle,web application</d:tags>
<d:license>by</d:license>
<d:slug>o6upvn</d:slug>
</metadata></svg>